<svg xmlns="http://www.w3.org/2000/svg" xmlns:xlink="http://www.w3.org/1999/xlink" xmlns:inkscape="http://www.inkscape.org/namespaces/inkscape" version="1.1" width="300.316" height="210.58" viewBox="0 0 300.316 210.58">
<path transform="matrix(1,0,0,-1,0,210.58)" d="M0 0H300.316V210.58H0Z"/>
<text fill="#ffffff" xml:space="preserve" transform="matrix(1.5 0 -0 1.5 -4.9814999 260.9835)" font-size="11.9552" font-family="CMMI12" font-style="italic"><tspan y="-138.006" x="72.288">i</tspan></text>
<text fill="#ffffff" xml:space="preserve" transform="matrix(1.5 0 -0 1.5 -4.9814999 260.9835)" font-size="11.9552" font-family="CMR12"><tspan y="-138.006" x="76.282009">&#x00af;</tspan></text>
<text fill="#ffffff" xml:space="preserve" transform="matrix(1.5 0 -0 1.5 -4.9814999 260.9835)" font-size="11.9552" font-family="CMMI12" font-style="italic"><tspan y="-138.006" x="76.157009">h</tspan><tspan y="-146.094" x="84.091 90.91743">&#x2202;&#x03c8;</tspan></text>
<path transform="matrix(1.5,0,0,-1.5,121.15501,49.490999)" stroke-width=".478" stroke-linecap="butt" stroke-miterlimit="10" stroke-linejoin="miter" fill="none" stroke="#ffffff" d="M0 0H14.869"/>
<text fill="#ffffff" xml:space="preserve" transform="matrix(1.5 0 -0 1.5 -4.9814999 260.9835)" font-size="11.9552" font-family="CMMI12" font-style="italic"><tspan y="-129.805" x="85.997 92.823429">&#x2202;t</tspan></text>
<text fill="#ffffff" xml:space="preserve" transform="matrix(1.5 0 -0 1.5 -4.9814999 260.9835)" font-size="11.9552" font-family="CMR12"><tspan y="-138.006" x="103.477008">=</tspan><tspan y="-141.028" x="118.937007">&#x02c6;</tspan></text>
<text fill="#ffffff" xml:space="preserve" transform="matrix(1.5 0 -0 1.5 -4.9814999 260.9835)" font-size="11.9552" font-family="CMMI12" font-style="italic"><tspan y="-138.006" x="115.902 126.51822">H&#x03c8;</tspan></text>
<path transform="matrix(1.5,0,0,-1.5,56.9085,93.12749)" stroke-width=".598" stroke-linecap="butt" stroke-miterlimit="10" stroke-linejoin="miter" fill="none" stroke="#ffffff" d="M0 0H124.332"/>
<text fill="#ffffff" xml:space="preserve" transform="matrix(1.5 0 -0 1.5 -4.9814999 260.9835)" font-size="11.9552" font-family="CMMI12" font-style="italic"><tspan y="-74.733" x="11.158 17.984419">&#x2202;V</tspan></text>
<path transform="matrix(1.5,0,0,-1.5,11.7555,156.53249)" stroke-width=".478" stroke-linecap="butt" stroke-miterlimit="10" stroke-linejoin="miter" fill="none" stroke="#ffffff" d="M0 0H16.256"/>
<text fill="#ffffff" xml:space="preserve" transform="matrix(1.5 0 -0 1.5 -4.9814999 260.9835)" font-size="11.9552" font-family="CMMI12" font-style="italic"><tspan y="-58.444" x="13.757 20.58342">&#x2202;t</tspan></text>
<text fill="#ffffff" xml:space="preserve" transform="matrix(1.5 0 -0 1.5 -4.9814999 260.9835)" font-size="11.9552" font-family="CMR12"><tspan y="-66.645008" x="31.266">+</tspan><tspan y="-74.733" x="44.223">1</tspan></text>
<path transform="matrix(1.5,0,0,-1.5,61.353006,156.53249)" stroke-width=".478" stroke-linecap="butt" stroke-miterlimit="10" stroke-linejoin="miter" fill="none" stroke="#ffffff" d="M0 0H5.853"/>
<text fill="#ffffff" xml:space="preserve" transform="matrix(1.5 0 -0 1.5 -4.9814999 260.9835)" font-size="11.9552" font-family="CMR12"><tspan y="-58.444" x="44.223">2</tspan></text>
<text fill="#ffffff" xml:space="preserve" transform="matrix(1.5 0 -0 1.5 -4.9814999 260.9835)" font-size="11.9552" font-family="CMMI12" font-style="italic"><tspan y="-66.645008" x="51.271">&#x03c3;</tspan></text>
<text fill="#ffffff" xml:space="preserve" transform="matrix(1.5 0 -0 1.5 -4.9814999 260.9835)" font-size="7.9701" font-family="CMR8"><tspan y="-71.581" x="58.354">2</tspan></text>
<text fill="#ffffff" xml:space="preserve" transform="matrix(1.5 0 -0 1.5 -4.9814999 260.9835)" font-size="11.9552" font-family="CMMI12" font-style="italic"><tspan y="-66.645008" x="63.086">S</tspan></text>
<text fill="#ffffff" xml:space="preserve" transform="matrix(1.5 0 -0 1.5 -4.9814999 260.9835)" font-size="7.9701" font-family="CMR8"><tspan y="-71.581" x="70.980998">2</tspan></text>
<text fill="#ffffff" xml:space="preserve" transform="matrix(1.5 0 -0 1.5 -4.9814999 260.9835)" font-size="11.9552" font-family="CMMI12" font-style="italic"><tspan y="-74.733" x="76.909">&#x2202;</tspan></text>
<text fill="#ffffff" xml:space="preserve" transform="matrix(1.5 0 -0 1.5 -4.9814999 260.9835)" font-size="7.9701" font-family="CMR8"><tspan y="-79.071" x="83.739">2</tspan></text>
<text fill="#ffffff" xml:space="preserve" transform="matrix(1.5 0 -0 1.5 -4.9814999 260.9835)" font-size="11.9552" font-family="CMMI12" font-style="italic"><tspan y="-74.733" x="88.471">V</tspan></text>
<path transform="matrix(1.5,0,0,-1.5,110.381999,156.53249)" stroke-width=".478" stroke-linecap="butt" stroke-miterlimit="10" stroke-linejoin="miter" fill="none" stroke="#ffffff" d="M0 0H20.988"/>
<text fill="#ffffff" xml:space="preserve" transform="matrix(1.5 0 -0 1.5 -4.9814999 260.9835)" font-size="11.9552" font-family="CMMI12" font-style="italic"><tspan y="-58.444" x="77.674 84.50043">&#x2202;S</tspan></text>
<text fill="#ffffff" xml:space="preserve" transform="matrix(1.5 0 -0 1.5 -4.9814999 260.9835)" font-size="7.9701" font-family="CMR8"><tspan y="-61.898" x="92.399">2</tspan></text>
<text fill="#ffffff" xml:space="preserve" transform="matrix(1.5 0 -0 1.5 -4.9814999 260.9835)" font-size="11.9552" font-family="CMR12"><tspan y="-66.645" x="101.749">+</tspan></text>
<text fill="#ffffff" xml:space="preserve" transform="matrix(1.5 0 -0 1.5 -4.9814999 260.9835)" font-size="11.9552" font-family="CMMI12" font-style="italic"><tspan y="-66.645" x="113.51 119.105037">rS</tspan><tspan y="-74.732997" x="128.202 135.02841">&#x2202;V</tspan></text>
<path transform="matrix(1.5,0,0,-1.5,187.32149,156.53249)" stroke-width=".478" stroke-linecap="butt" stroke-miterlimit="10" stroke-linejoin="miter" fill="none" stroke="#ffffff" d="M0 0H16.256"/>
<text fill="#ffffff" xml:space="preserve" transform="matrix(1.5 0 -0 1.5 -4.9814999 260.9835)" font-size="11.9552" font-family="CMMI12" font-style="italic"><tspan y="-58.444" x="128.967 135.79341">&#x2202;S</tspan></text>
<text fill="#ffffff" xml:space="preserve" transform="matrix(1.5 0 -0 1.5 -4.9814999 260.9835)" font-size="11.9552" font-family="CMSY10" font-style="italic"><tspan y="-66.645008" x="148.30899">&#x2212;</tspan></text>
<text fill="#ffffff" xml:space="preserve" transform="matrix(1.5 0 -0 1.5 -4.9814999 260.9835)" font-size="11.9552" font-family="CMMI12" font-style="italic"><tspan y="-66.645008" x="160.26499 165.86002">rV</tspan></text>
<text fill="#ffffff" xml:space="preserve" transform="matrix(1.5 0 -0 1.5 -4.9814999 260.9835)" font-size="11.9552" font-family="CMR12"><tspan y="-66.645008" x="178.61199 191.0454">=0</tspan></text>
</svg>
